<?xml version="1.0" encoding="UTF-8"?>
<svg xmlns="http://www.w3.org/2000/svg" viewBox="0 0 670.71 508.09" role="img" aria-label="Converly">
  <defs>
    <linearGradient id="logoGradient" x1="45.74" y1="457.85" x2="552.73" y2="193.65" gradientUnits="userSpaceOnUse">
      <stop offset="0" stop-color="#009ef0"/>
      <stop offset="0.34" stop-color="#009bf0"/>
      <stop offset="0.52" stop-color="#0071d7"/>
      <stop offset="0.79" stop-color="#0046bc"/>
      <stop offset="1" stop-color="#003fb8"/>
    </linearGradient>
  </defs>
  <path fill="url(#logoGradient)" d="M569.91,96.58c-1.44-2.54-5.83-6.71-8.67-9.65-9.91-10.27-19.92-20.5-31.02-29.47-26.8-23.64-57.52-40.2-92.77-49.72-95.87-28.78-209.3,25.6-249.4,113.3-4.59,8.82-8.3,18.21-15.96,24.77-7.61,6.75-18.98,6.7-28.51,7.59-9.91.92-19.79,3.46-29.06,7.89-28.56,12.72-44.91,43.58-43.27,74.04.19,7.97,2.21,17.42-2.55,24.26-2.93,4.57-8.51,7.69-13.18,10.59C4.58,302.88-16.52,374.03,14.49,435.61c18.49,36.95,55.27,63.21,93.86,69.47,22.25,3.45,44.58,3.05,66.28,2.83,66.49.58,130.86-.42,211.27-.23,37.61-.3,73.34.42,111.26-.76,12.42-.45,24.91-.46,37.21-2.4,39.95-6.06,75.88-32.34,100.93-61.87,11.96-14.31,22.08-30.2,30.99-46.24,4.63-7.89,7.24-16.62-.4-23.66-4.94-4.68-11.2-8.29-16.86-12.12-13.88-8.99-27.98-18.51-41.57-28.23-9.77-6.75-19.58-13.33-29.11-20.39-9.94-7.58-18.13-10.08-28.66-1.52-11.14,9-22.66,17.77-35.26,24.69-15.83,8.08-32.74,14.87-49.85,19.16-17.25,4.27-35.15,3.93-52.77,3-10.15-.63-20.39-1.69-30.06-5.01-31.83-11.26-54.44-43.24-56.98-76.54-3.02-35.87,17.36-70.58,49.4-86.48,19.63-9.06,42.47-13.09,63.69-7.33,9.57,2.47,18.75,6.31,27.43,11.06,4.15,2.25,8.43,4.93,11.94,7.08,3.77,2.31,6.59,3.8,8.75,3.59,1.87-.12,3.32-1.65,4.57-3.15,13.42-16.59,53.63-66.36,75.23-93.1,3.72-4.86,6.49-6.69,4.19-10.77l-.05-.09Z"/>
</svg>
