<?xml version="1.0" encoding="UTF-8"?>
<svg xmlns="http://www.w3.org/2000/svg" width="880" height="126" viewBox="0 0 880 126" role="img" aria-label="Sectores: estetica, salud y clinicas, ecommerce, automocion, inmobiliarias y hoteles, restaurantes">
  <defs>
    <linearGradient id="badgeBg" x1="0" y1="0" x2="0" y2="1">
      <stop offset="0%" stop-color="#12224a"/>
      <stop offset="100%" stop-color="#0b1730"/>
    </linearGradient>
    <linearGradient id="badgeStroke" x1="0" y1="0" x2="1" y2="1">
      <stop offset="0%" stop-color="#1e7bff" stop-opacity="0.55"/>
      <stop offset="100%" stop-color="#0051ff" stop-opacity="0.18"/>
    </linearGradient>
  </defs>

  <!-- Estetica -->
  <circle cx="74" cy="46" r="27" fill="url(#badgeBg)" stroke="url(#badgeStroke)" stroke-width="1.4"/>
  <g transform="translate(61,33) scale(1.7333)" color="#4da4ff">
    <path fill="currentColor" d="M11.5 2h-2C9 2 9 3 9.5 3h2c.5 0 .5 1 0 1h-2C9 4 9 5 9.5 5h2c.5 0 .5 1 0 1h-2C9 6 9 7 9.5 7h2c.5 0 .5 1 0 1h-2C9 8 9 9 9.5 9h2c.5 0 .5 1 0 1h-2c-.5 0-.5 1 0 1h2c.5 0 .5 1 0 1h-2c-.5 0-.5 1 0 1h2c.5 0 .5 1 0 1h-2c-.5 0-.5 1 0 1h4c.5 0 .5-1 .5-1V1s0-1-.5-1h-4C9 0 9 1 9.5 1h2c.5 0 .5 1 0 1m-5.6 8.17C7 9.5 8 10.53 8 11.5c0 .61-.25 1.14-.78 1.38c-.13.66.03.84.19 1.15c.16.32-.24.72-.58.41c-.29-.27-.44-.94-.43-1.41c-.74-.04-1.4-.67-1.4-1.53l-.25-4h-.5l-.25 4c0 .77-.61 1.5-1.5 1.5c-.88 0-1.5-.65-1.5-1.5c0-.95 1-2 2.17-1.33C3.25 10.25 4 0 4.5 0s1.4 10.17 1.4 10.17m-3.4.58q-.75 0-.75.75t.75.75c.5 0 .75-.5.75-.75q0-.75-.75-.75m4 0q-.75 0-.75.75c0 .25.25.75.75.75q.75 0 .75-.75t-.75-.75"/>
  </g>
  <text x="74" y="100" text-anchor="middle" fill="#c5d0ef" font-family="Segoe UI, Helvetica Neue, Arial, sans-serif" font-size="12.5" font-weight="600">Est&#233;tica</text>

  <!-- Salud y clinicas -->
  <circle cx="220" cy="46" r="27" fill="url(#badgeBg)" stroke="url(#badgeStroke)" stroke-width="1.4"/>
  <g transform="translate(207,33) scale(1.0833)" color="#4da4ff">
    <path fill="currentColor" d="M17.25 7a.75.75 0 0 0-1.5 0v1.25H14.5a.75.75 0 0 0 0 1.5h1.25V11a.75.75 0 0 0 1.5 0V9.75h1.25a.75.75 0 0 0 0-1.5h-1.25z"/>
    <path fill="currentColor" fill-rule="evenodd" clip-rule="evenodd" d="M22.75 9.318c0-3.326-1.482-5.808-3.79-6.711c-2.135-.837-4.698-.211-6.96 1.906C9.738 2.396 7.175 1.77 5.04 2.607c-2.308.903-3.79 3.385-3.79 6.71c0 2.119 1.13 4.203 2.537 5.997c1.422 1.813 3.21 3.436 4.702 4.647l.134.11c1.2.975 2.068 1.68 3.377 1.68c1.31 0 2.176-.705 3.377-1.68l.134-.11c1.492-1.21 3.28-2.834 4.702-4.647c1.407-1.794 2.537-3.878 2.537-5.996M12.548 6.087c2.112-2.259 4.301-2.696 5.866-2.084c1.568.614 2.836 2.41 2.836 5.315c0 1.611-.88 3.364-2.218 5.07c-1.324 1.69-3.016 3.232-4.466 4.409c-1.393 1.13-1.843 1.453-2.566 1.453s-1.173-.323-2.566-1.454c-1.45-1.176-3.142-2.719-4.466-4.407c-1.339-1.707-2.218-3.46-2.218-5.071c0-2.905 1.268-4.7 2.836-5.315c1.565-.612 3.754-.175 5.866 2.084a.75.75 0 0 0 1.096 0"/>
  </g>
  <text x="220" y="100" text-anchor="middle" fill="#c5d0ef" font-family="Segoe UI, Helvetica Neue, Arial, sans-serif" font-size="12.5" font-weight="600">Salud y cl&#237;nicas</text>

  <!-- Ecommerce -->
  <circle cx="367" cy="46" r="27" fill="url(#badgeBg)" stroke="url(#badgeStroke)" stroke-width="1.4"/>
  <g transform="translate(354,33) scale(1.0833)" color="#4da4ff">
    <g fill="none">
      <path stroke="currentColor" stroke-width="1.5" d="M7.5 18a1.5 1.5 0 1 1 0 3a1.5 1.5 0 0 1 0-3Zm9 0a1.5 1.5 0 1 1 0 3a1.5 1.5 0 0 1 0-3Z"/>
      <path fill="currentColor" d="m2.261 3.092l.249-.708zm-.012-.8a.75.75 0 1 0-.498 1.416zm2.337 2.031l.62-.423zm1.302 10.263l-.545.516zm14.77-4.703l.734.151l.001-.004zm-.5 2.425l.735.15zm.576-5.61l-.594.456zm-1.6 8.352l-.474-.581zM5.708 9.76V7.038h-1.5V9.76zM2.51 2.384l-.261-.092l-.498 1.416l.261.091zm8.428 13.866h5.302v-1.5h-5.302zm-5.23-9.212c0-.707.001-1.297-.05-1.776c-.055-.497-.171-.95-.453-1.362l-1.238.846c.09.132.16.314.199.677c.041.38.042.875.042 1.615zM2.012 3.8c.668.235 1.107.39 1.43.55c.303.148.437.268.525.397L5.205 3.9c-.284-.416-.662-.682-1.103-.899c-.42-.206-.958-.394-1.592-.617zm2.196 5.96c0 1.453.014 2.5.15 3.3c.147.854.44 1.466.985 2.042l1.089-1.032c-.32-.338-.493-.668-.595-1.263c-.11-.65-.129-1.558-.129-3.047zm6.73 4.99c-1.417 0-2.4-.002-3.141-.107c-.715-.101-1.092-.285-1.365-.573l-1.089 1.032c.594.627 1.347.9 2.243 1.026c.87.124 1.98.122 3.351.122zm-5.98-7.88h12.13v-1.5H4.959zm14.965 2.861l-.5 2.425l1.47.303l.5-2.425zM17.09 6.87c.856 0 1.61.001 2.205.067q.441.052.672.134c.161.057.187.1.174.083l1.189-.914c-.235-.306-.565-.479-.866-.584a4.6 4.6 0 0 0-1.003-.21c-.695-.077-1.543-.076-2.371-.076zm4.304 3.16c.17-.848.313-1.56.348-2.13c.037-.586-.03-1.164-.412-1.66l-1.189.914c.062.081.13.226.104.654c-.027.444-.144 1.037-.322 1.928zm-5.153 6.22c.762 0 1.401.001 1.917-.062c.535-.065 1.024-.209 1.45-.556l-.947-1.163c-.125.102-.303.184-.686.23c-.403.05-.934.051-1.734.051zm3.184-4.094c-.162.783-.27 1.303-.4 1.688c-.123.366-.239.523-.364.625l.947 1.163c.427-.348.666-.797.838-1.309c.166-.492.294-1.118.448-1.864z"/>
      <path stroke="currentColor" stroke-linecap="round" stroke-linejoin="round" stroke-width="1.5" d="m11 10.8l1.143 1.2L15 9"/>
    </g>
  </g>
  <text x="367" y="100" text-anchor="middle" fill="#c5d0ef" font-family="Segoe UI, Helvetica Neue, Arial, sans-serif" font-size="12.5" font-weight="600">Ecommerce</text>

  <!-- Automocion -->
  <circle cx="513" cy="46" r="27" fill="url(#badgeBg)" stroke="url(#badgeStroke)" stroke-width="1.4"/>
  <g transform="translate(500,33) scale(1.7333)" color="#4da4ff">
    <path fill="currentColor" d="M3 5a2 2 0 0 0 1.732-1H12a1 1 0 1 0 0-2H4.732a2 2 0 0 0-3.464 0H3v2H1.268A2 2 0 0 0 3 5m-.854 4.354A.5.5 0 0 0 2 9.707V13.5a.5.5 0 0 0 .5.5H4a.5.5 0 0 0 .5-.5V13h6v.5a.5.5 0 0 0 .5.5h1.5a.5.5 0 0 0 .5-.5V9.707a.5.5 0 0 0-.146-.353L12 8.5l-1.354-2.257a.5.5 0 0 0-.43-.243H4.784a.5.5 0 0 0-.429.243L3 8.5zM11.134 9H3.866l1.2-2h4.868zM5.5 10.828v.372a.3.3 0 0 1-.3.3H3.3a.3.3 0 0 1-.3-.3v-.834a.3.3 0 0 1 .359-.294l1.82.364a.4.4 0 0 1 .321.392m6.5-.34v.712a.3.3 0 0 1-.3.3H9.8a.3.3 0 0 1-.3-.3v-.454a.3.3 0 0 1 .241-.294l1.78-.356a.4.4 0 0 1 .479.392"/>
  </g>
  <text x="513" y="100" text-anchor="middle" fill="#c5d0ef" font-family="Segoe UI, Helvetica Neue, Arial, sans-serif" font-size="12.5" font-weight="600">Automoci&#243;n</text>

  <!-- Inmobiliarias y hoteles -->
  <circle cx="660" cy="46" r="27" fill="url(#badgeBg)" stroke="url(#badgeStroke)" stroke-width="1.4"/>
  <g transform="translate(647,33) scale(1.0833)" color="#4da4ff">
    <path fill="currentColor" d="M5 5a2 2 0 0 1 2-2h10a2 2 0 0 1 2 2v1h1a1 1 0 1 1 0 2v11a1 1 0 1 1 0 2H4a1 1 0 1 1 0-2V8a1 1 0 0 1 0-2h1zm12 0v1H7V5zm1 3v11h-3.5v-2.5a2.5 2.5 0 0 0-5 0V19H6V8zm-6 8a.5.5 0 0 1 .5.5V19h-1v-2.5a.5.5 0 0 1 .5-.5m-4-3a1 1 0 0 1 1 1v1a1 1 0 1 1-2 0v-1a1 1 0 0 1 1-1m8 0a1 1 0 0 1 .993.883L17 14v1a1 1 0 0 1-1.993.117L15 15v-1a1 1 0 0 1 1-1M8 9a1 1 0 0 1 .993.883L9 10v1a1 1 0 0 1-1.993.117L7 11v-1a1 1 0 0 1 1-1m4 0a1 1 0 0 1 .993.883L13 10v1a1 1 0 0 1-1.993.117L11 11v-1a1 1 0 0 1 1-1m4 0a1 1 0 0 1 1 1v1a1 1 0 1 1-2 0v-1a1 1 0 0 1 1-1"/>
  </g>
  <text x="660" y="100" text-anchor="middle" fill="#c5d0ef" font-family="Segoe UI, Helvetica Neue, Arial, sans-serif" font-size="12.5" font-weight="600">Inmobiliarias</text>

  <!-- Restaurantes -->
  <circle cx="806" cy="46" r="27" fill="url(#badgeBg)" stroke="url(#badgeStroke)" stroke-width="1.4"/>
  <g transform="translate(792,32) scale(0.4375)" color="#4da4ff">
    <path fill="currentColor" d="M45.9 37.4h-5c-2 0-3.6 1.6-3.6 3.6v5c0 2 1.6 3.6 3.6 3.6h5c2 0 3.6-1.6 3.6-3.6v-5c0-2-1.6-3.6-3.6-3.6M45 45h-3.1v-3.1H45z"/>
    <path fill="currentColor" d="M59.7 20.6v-1.2c0-.4-.1-.8-.3-1.1L51.8 4.9c-1.1-1.9-3.1-3.1-5.3-3.1h-29c-2.2 0-4.2 1.2-5.3 3.1L4.6 18.3v.1c0 .1-.1.2-.1.3c-.1.2-.2.5-.2.8v36.8c0 3.4 2.7 6.1 6.1 6.1h43.1c3.4 0 6.1-2.7 6.1-6.1zm-30.1 1c-.4 1.8-2.1 3.1-4 3.1s-3.5-1.3-4-3.1zM16.1 7.1c.3-.5.8-.8 1.4-.8h29c.6 0 1.1.3 1.4.8l5.6 10h-43zM55 21.6c-.4 1.8-2 3.1-4 3.1c-1.9 0-3.5-1.3-4-3.1zm-12.7 0c-.4 1.8-2 3.1-4 3.1s-3.5-1.3-4-3.1zm-25.4 0c-.4 1.8-2 3.1-4 3.1c-1.9 0-3.5-1.3-4-3.1zM19 57.8V42.3c0-.2.2-.4.4-.4h4.8c.2 0 .4.2.4.4v15.4H19zm34.6 0H29.2V42.3c0-2.7-2.2-4.9-4.9-4.9h-4.8c-2.7 0-4.9 2.2-4.9 4.9v15.4h-4.1c-.9 0-1.6-.7-1.6-1.6v-28c1.2.7 2.6 1 4.1 1c2.5 0 4.8-1.1 6.4-2.8c1.6 1.7 3.8 2.8 6.4 2.8c2.5 0 4.8-1.1 6.4-2.8c1.6 1.7 3.8 2.8 6.4 2.8c2.5 0 4.8-1.1 6.4-2.8c1.6 1.7 3.8 2.8 6.4 2.8c1.5 0 2.9-.4 4.1-1v28c-.3.9-1.1 1.7-1.9 1.7"/>
  </g>
  <text x="806" y="100" text-anchor="middle" fill="#c5d0ef" font-family="Segoe UI, Helvetica Neue, Arial, sans-serif" font-size="12.5" font-weight="600">Restaurantes</text>
</svg>
